<svg xmlns="http://www.w3.org/2000/svg" viewBox="0 0 410 404">
  <defs>
    <linearGradient id="a" x1="6.72%" x2="86.93%" y1="7.86%" y2="85.84%">
      <stop offset="0%" stop-color="#41D1FF"/>
      <stop offset="100%" stop-color="#BD34FE"/>
    </linearGradient>
    <linearGradient id="b" x1="64.35%" x2="30.89%" y1="27.37%" y2="64.79%">
      <stop offset="0%" stop-color="#FFEA83"/>
      <stop offset="8.33%" stop-color="#FFDD35"/>
      <stop offset="100%" stop-color="#FFA800"/>
    </linearGradient>
  </defs>
  <path fill="url(#a)" d="M399.64 20.44L222.3 391.2c-3.55 7.42-13.83 7.47-17.44.09L9.91 20.44C6.18 13.14 11.5 4.5 19.47 4.5h360.66c7.97 0 13.3 8.64 9.51 15.94z"/>
  <path fill="url(#b)" d="M271.62 0c-2.53 0-4.68 1.9-5.06 4.4L244.2 150.1c-.42 2.86 1.77 5.43 4.67 5.43h42.4c3.1 0 5.48 2.8 4.94 5.85l-16.64 93.9c-.62 3.52 2.84 6.23 6.02 4.53l23.68-12.7c1.85-.99 4.13-1 5.98 0l18.46 9.88c3.18 1.7 6.64-1.01 6.02-4.53l-32.2-181.2c-.54-3.05 1.84-5.85 4.94-5.85h36.47c2.9 0 5.09-2.57 4.67-5.43L312.7 4.4c-.38-2.5-2.53-4.4-5.06-4.4h-36.02z"/>
</svg>
